<svg width="378" height="189" viewBox="0 0 378 189" fill="none" xmlns="http://www.w3.org/2000/svg">
<path d="M79.2211 66.385C80.2598 65.3462 81.6403 64.7741 83.1101 64.7741C84.5789 64.7741 85.9603 65.3462 86.999 66.385L94.1645 73.5494C94.488 72.4752 94.6522 71.3606 94.6522 70.224C94.6522 63.8688 89.4816 58.6973 83.1254 58.6973C76.7702 58.6973 71.5987 63.8688 71.5987 70.224C71.5987 76.5802 76.7693 81.7507 83.1254 81.7507C84.2256 81.7507 85.3056 81.5981 86.3491 81.2938L79.2643 74.208C77.0765 72.0202 77.0765 68.5306 79.2211 66.3859V66.385Z" fill="white"/>
<path d="M86.2128 67.2595C85.3526 66.3984 84.2659 65.9482 83.1101 65.9482C81.9542 65.9482 80.8685 66.3984 80.0506 67.2154C78.3648 68.9021 78.3648 71.6477 80.0506 73.3334L96.1046 89.3885C97.3565 86.6957 99.5194 84.5194 102.201 83.2464L86.2118 67.2586L86.2128 67.2595Z" fill="white"/>
<path d="M111.458 90.8179C112.497 91.8557 113.069 93.2371 113.069 94.7059C113.069 96.1757 112.497 97.5571 111.458 98.5958L104.292 105.761C105.367 106.086 106.482 106.249 107.619 106.249C113.974 106.249 119.146 101.078 119.146 94.7222C119.146 88.367 113.975 83.1965 107.619 83.1965C101.263 83.1965 96.0922 88.367 96.0922 94.7222C96.0922 95.8224 96.2458 96.9024 96.5501 97.9459L103.636 90.8611C105.824 88.6733 109.313 88.6733 111.458 90.8179Z" fill="white"/>
<path d="M110.583 97.8096C111.444 96.9494 111.895 95.8627 111.895 94.7069C111.895 93.551 111.444 92.4653 110.628 91.6483C108.941 89.9626 106.195 89.9626 104.508 91.6483L88.4534 107.702C91.1462 108.954 93.3226 111.117 94.5946 113.798L110.582 97.8096H110.583Z" fill="white"/>
<path d="M87.025 123.055C85.9872 124.093 84.6048 124.666 83.136 124.666C81.6662 124.666 80.2848 124.093 79.2461 123.055L72.0816 115.89C71.7571 116.964 71.5939 118.079 71.5939 119.217C71.5939 125.572 76.7645 130.743 83.1206 130.743C89.4758 130.743 94.6474 125.572 94.6474 119.217C94.6474 112.86 89.4768 107.69 83.1206 107.69C82.0205 107.69 80.9405 107.844 79.897 108.148L86.9827 115.234C89.1696 117.421 89.1696 120.911 87.0259 123.056L87.025 123.055Z" fill="white"/>
<path d="M80.0333 122.18C80.8934 123.041 81.9802 123.491 83.136 123.491C84.2918 123.491 85.3776 123.041 86.1946 122.224C87.8813 120.538 87.8813 117.792 86.1946 116.105L70.1405 100.05C68.8886 102.743 66.7258 104.92 64.0445 106.192L80.0333 122.18Z" fill="white"/>
<path d="M54.7882 98.6218C53.7485 97.584 53.1773 96.2026 53.1773 94.7328C53.1773 93.264 53.7485 91.8826 54.7882 90.8438L61.9526 83.6784C60.8784 83.3549 59.7638 83.1907 58.6262 83.1907C52.271 83.1907 47.1005 88.3613 47.1005 94.7174C47.1005 101.073 52.271 106.243 58.6262 106.243C64.9824 106.243 70.153 101.073 70.153 94.7174C70.153 93.6173 69.9994 92.5373 69.695 91.4938L62.6093 98.5786C60.4214 100.766 56.9318 100.766 54.7872 98.6218H54.7882Z" fill="white"/>
<path d="M55.6618 91.6301C54.8006 92.4902 54.3514 93.577 54.3514 94.7328C54.3514 95.8886 54.8006 96.9754 55.6176 97.7914C57.3043 99.4771 60.0499 99.4771 61.7366 97.7914L77.7917 81.7373C75.0989 80.4854 72.9216 78.3226 71.6496 75.6413L55.6618 91.6301Z" fill="white" stroke="white" stroke-width="0.288" stroke-miterlimit="10"/>
<path d="M143.109 107.703C140.386 107.703 137.776 107.339 135.28 106.609C132.784 105.88 130.774 104.931 129.251 103.764L131.926 97.8317C133.384 98.8694 135.11 99.72 137.104 100.384C139.098 101.05 141.116 101.381 143.158 101.381C144.714 101.381 145.971 101.227 146.927 100.919C147.883 100.611 148.589 100.182 149.043 99.6307C149.497 99.0797 149.724 98.447 149.724 97.7338C149.724 96.8256 149.366 96.1046 148.654 95.5699C147.941 95.0352 147.001 94.5974 145.834 94.2566C144.666 93.9158 143.378 93.5923 141.968 93.2842C140.557 92.976 139.147 92.5949 137.737 92.1418C136.327 91.6877 135.038 91.104 133.871 90.3907C132.705 89.6774 131.756 88.7376 131.027 87.5702C130.297 86.4038 129.932 84.912 129.932 83.0966C129.932 81.1517 130.459 79.3766 131.512 77.7725C132.566 76.1683 134.154 74.8867 136.278 73.9306C138.401 72.9744 141.067 72.4963 144.276 72.4963C146.416 72.4963 148.524 72.7478 150.598 73.2499C152.673 73.753 154.504 74.5066 156.093 75.5107L153.661 81.4915C152.073 80.5834 150.485 79.9114 148.896 79.4736C147.307 79.0358 145.751 78.817 144.228 78.817C142.704 78.817 141.456 78.9955 140.484 79.3517C139.511 79.7078 138.814 80.1696 138.393 80.737C137.971 81.3043 137.76 81.961 137.76 82.7069C137.76 83.5814 138.117 84.287 138.83 84.8227C139.544 85.3574 140.484 85.7866 141.651 86.111C142.817 86.4355 144.107 86.759 145.517 87.0835C146.927 87.408 148.337 87.7805 149.748 88.2019C151.158 88.6234 152.446 89.1907 153.612 89.904C154.78 90.6173 155.728 91.5571 156.457 92.7245C157.187 93.8918 157.551 95.3664 157.551 97.1491C157.551 99.0624 157.017 100.812 155.947 102.401C154.877 103.989 153.28 105.27 151.157 106.242C149.033 107.215 146.351 107.701 143.109 107.701V107.703ZM165.234 116.942C163.873 116.942 162.527 116.731 161.198 116.31C159.869 115.888 158.783 115.306 157.94 114.559L160.712 109.162C161.295 109.681 161.968 110.086 162.73 110.378C163.492 110.67 164.245 110.816 164.99 110.816C166.061 110.816 166.911 110.564 167.543 110.062C168.175 109.559 168.751 108.725 169.269 107.557L170.63 104.348L171.214 103.522L180.599 80.9587H187.893L176.076 108.725C175.234 110.832 174.27 112.485 173.183 113.685C172.097 114.884 170.897 115.727 169.585 116.214C168.273 116.7 166.821 116.943 165.233 116.943L165.234 116.942ZM169.708 108.141L158.037 80.9587H165.866L174.911 102.841L169.708 108.141ZM206.907 80.5699C208.981 80.5699 210.838 80.9837 212.475 81.8102C214.112 82.6368 215.401 83.9011 216.341 85.6032C217.282 87.3053 217.751 89.4854 217.751 92.1437V107.121H210.165V93.311C210.165 91.2038 209.703 89.6477 208.779 88.6435C207.855 87.6384 206.55 87.1363 204.864 87.1363C203.664 87.1363 202.587 87.3869 201.63 87.8899C200.674 88.392 199.928 89.1629 199.393 90.1997C198.858 91.2374 198.59 92.5661 198.59 94.1875V107.123H191.004V80.9616H198.25V88.2067L196.888 86.0179C197.829 84.2678 199.174 82.9229 200.924 81.9821C202.675 81.0422 204.668 80.5718 206.905 80.5718L206.907 80.5699ZM240.654 107.121V102.014L240.167 100.896V91.7539C240.167 90.1334 239.673 88.8691 238.685 87.961C237.696 87.0528 236.18 86.5987 234.138 86.5987C232.744 86.5987 231.374 86.8176 230.029 87.2554C228.684 87.6931 227.541 88.2845 226.601 89.0294L223.878 83.7293C225.304 82.7242 227.023 81.9466 229.032 81.3955C231.042 80.8445 233.084 80.569 235.159 80.569C239.147 80.569 242.242 81.5098 244.446 83.3894C246.65 85.2701 247.752 88.2038 247.752 92.1907V107.119H240.653L240.654 107.121ZM232.679 107.51C230.636 107.51 228.886 107.162 227.428 106.465C225.97 105.768 224.851 104.82 224.073 103.62C223.294 102.42 222.905 101.076 222.905 99.5846C222.905 98.0285 223.286 96.6672 224.049 95.4998C224.81 94.3325 226.018 93.4166 227.671 92.7523C229.324 92.088 231.48 91.7558 234.138 91.7558H241.092V96.1805H234.965C233.182 96.1805 231.958 96.4723 231.294 97.056C230.628 97.6397 230.296 98.3683 230.296 99.2438C230.296 100.216 230.677 100.986 231.439 101.554C232.201 102.121 233.246 102.405 234.575 102.405C235.839 102.405 236.974 102.105 237.979 101.506C238.983 100.906 239.714 100.022 240.167 98.856L241.334 102.357C240.783 104.043 239.778 105.324 238.319 106.198C236.86 107.074 234.98 107.511 232.678 107.511L232.679 107.51ZM261.223 107.121L250.233 80.9597H258.061L267.204 103.474H263.314L272.796 80.9597H280.09L269.052 107.121H261.223ZM294.921 107.51C292.133 107.51 289.661 106.927 287.506 105.759C285.349 104.592 283.647 102.996 282.399 100.97C281.151 98.9434 280.527 96.6336 280.527 94.0406C280.527 91.4141 281.151 89.089 282.399 87.0624C283.647 85.0368 285.349 83.448 287.506 82.297C289.662 81.1459 292.133 80.5709 294.921 80.5709C297.676 80.5709 300.14 81.1469 302.312 82.297C304.484 83.448 306.185 85.0282 307.418 87.0384C308.65 89.0486 309.266 91.3824 309.266 94.0406C309.266 96.6336 308.651 98.9434 307.418 100.97C306.186 102.996 304.484 104.592 302.312 105.759C300.139 106.927 297.676 107.51 294.921 107.51ZM294.921 101.286C296.185 101.286 297.32 100.994 298.325 100.41C299.329 99.8266 300.124 98.9923 300.708 97.9056C301.291 96.8198 301.583 95.5315 301.583 94.0406C301.583 92.5171 301.291 91.2202 300.708 90.1507C300.124 89.0803 299.33 88.2538 298.325 87.671C297.32 87.0874 296.185 86.7955 294.921 86.7955C293.656 86.7955 292.522 87.0874 291.516 87.671C290.512 88.2547 289.71 89.0813 289.11 90.1507C288.51 91.2202 288.21 92.5171 288.21 94.0406C288.21 95.5315 288.511 96.8198 289.11 97.9056C289.71 98.9914 290.512 99.8266 291.516 100.41C292.522 100.994 293.656 101.286 294.921 101.286ZM314.323 107.121V80.9597H321.568V88.3517L320.548 86.2118C321.325 84.3638 322.573 82.9622 324.292 82.0051C326.009 81.049 328.101 80.5709 330.564 80.5709V87.5731C330.24 87.5414 329.948 87.5165 329.689 87.5002C329.43 87.4838 329.154 87.4752 328.862 87.4752C326.788 87.4752 325.11 88.0675 323.829 89.2502C322.548 90.4339 321.909 92.2733 321.909 94.7693V107.121H314.323Z" fill="white"/>
</svg>
