<?xml version="1.0" encoding="UTF-8"?>
<!DOCTYPE svg PUBLIC "-//W3C//DTD SVG 1.1//EN" "http://www.w3.org/Graphics/SVG/1.1/DTD/svg11.dtd">
<!-- Creator: CorelDRAW -->
<svg xmlns="http://www.w3.org/2000/svg" xml:space="preserve" width="3.93701in" height="1.9685in" version="1.1" style="shape-rendering:geometricPrecision; text-rendering:geometricPrecision; image-rendering:optimizeQuality; fill-rule:evenodd; clip-rule:evenodd"
viewBox="0 0 3937.01 1968.5"
 xmlns:xlink="http://www.w3.org/1999/xlink"
 xmlns:xodm="http://www.corel.com/coreldraw/odm/2003">
 <defs>
  <style type="text/css">
   <![CDATA[
    .str0 {stroke:#4A7BAA;stroke-width:3;stroke-miterlimit:10}
    .fil0 {fill:none}
    .fil2 {fill:#4A7BAA;fill-rule:nonzero}
    .fil1 {fill:#293A4B;fill-rule:nonzero}
    .fil3 {fill:#293A4B;fill-rule:nonzero}
   ]]>
  </style>
 </defs>
 <g id="Layer_x0020_1">
  <metadata id="CorelCorpID_0Corel-Layer"/>
  <rect class="fil0" x="-1.5" y="2.41" width="3937.01" height="1968.5"/>
  <rect class="fil0" x="295.28" y="413.39" width="3346.46" height="1141.73"/>
  <g id="_2248684787600">
   <g>
    <path class="fil1" d="M825.22 691.51c10.82,-10.82 25.2,-16.78 40.51,-16.78 15.3,0 29.69,5.96 40.51,16.78l74.64 74.63c3.37,-11.19 5.08,-22.8 5.08,-34.64 0,-66.2 -53.86,-120.07 -120.07,-120.07 -66.2,0 -120.07,53.87 -120.07,120.07 0,66.21 53.86,120.07 120.07,120.07 11.46,0 22.71,-1.59 33.58,-4.76l-73.8 -73.81c-22.79,-22.79 -22.79,-59.14 -0.45,-81.48z"/>
    <path class="fil2" d="M898.05 700.62c-8.96,-8.97 -20.28,-13.66 -32.32,-13.66 -12.04,0 -23.35,4.69 -31.87,13.2 -17.56,17.57 -17.56,46.17 0,63.73l167.23 167.24c13.04,-28.05 35.57,-50.72 63.5,-63.98l-166.55 -166.54z"/>
    <path class="fil1" d="M1161.02 946.02c10.82,10.81 16.78,25.2 16.78,40.5 0,15.31 -5.96,29.7 -16.78,40.52l-74.64 74.64c11.19,3.38 22.81,5.08 34.65,5.08 66.2,0 120.07,-53.86 120.07,-120.07 0,-66.2 -53.86,-120.06 -120.07,-120.06 -66.21,0 -120.07,53.86 -120.07,120.06 0,11.46 1.6,22.71 4.77,33.58l73.81 -73.8c22.79,-22.79 59.14,-22.79 81.48,-0.45z"/>
    <path class="fil2" d="M1151.91 1018.85c8.97,-8.96 13.66,-20.28 13.66,-32.32 0,-12.04 -4.69,-23.35 -13.2,-31.86 -17.57,-17.56 -46.17,-17.56 -63.74,0l-167.24 167.23c28.05,13.04 50.72,35.57 63.97,63.5l166.54 -166.55z"/>
    <path class="fil1" d="M906.51 1281.82c-10.81,10.82 -25.21,16.78 -40.51,16.78 -15.31,0 -29.7,-5.96 -40.52,-16.78l-74.63 -74.63c-3.38,11.19 -5.08,22.8 -5.08,34.65 0,66.2 53.86,120.07 120.07,120.07 66.2,0 120.07,-53.87 120.07,-120.07 0,-66.21 -53.86,-120.07 -120.07,-120.07 -11.46,0 -22.71,1.6 -33.58,4.77l73.81 73.81c22.78,22.79 22.78,59.14 0.45,81.48z"/>
    <path class="fil2" d="M833.68 1272.71c8.96,8.97 20.28,13.65 32.32,13.65 12.04,0 23.35,-4.68 31.86,-13.19 17.57,-17.57 17.57,-46.17 0,-63.74l-167.23 -167.24c-13.04,28.05 -35.57,50.73 -63.5,63.98l166.55 166.54z"/>
    <path class="fil1" d="M570.71 1027.31c-10.83,-10.81 -16.78,-25.2 -16.78,-40.51 0,-15.3 5.95,-29.69 16.78,-40.51l74.63 -74.64c-11.19,-3.37 -22.8,-5.08 -34.65,-5.08 -66.2,0 -120.06,53.86 -120.06,120.07 0,66.2 53.86,120.06 120.06,120.06 66.21,0 120.07,-53.86 120.07,-120.06 0,-11.46 -1.6,-22.71 -4.77,-33.58l-73.81 73.8c-22.79,22.79 -59.14,22.79 -81.48,0.45z"/>
    <path class="fil2 str0" d="M579.81 954.48c-8.97,8.96 -13.65,20.28 -13.65,32.32 0,12.04 4.68,23.36 13.19,31.86 17.57,17.56 46.17,17.56 63.74,0l167.24 -167.23c-28.05,-13.04 -50.73,-35.57 -63.98,-63.5l-166.54 166.55z"/>
   </g>
   <path class="fil3" d="M1490.72 1121.91c-28.37,0 -55.55,-3.8 -81.55,-11.4 -26,-7.59 -46.94,-17.48 -62.81,-29.63l27.87 -61.8c15.19,10.81 33.17,19.67 53.94,26.59 20.77,6.93 41.79,10.38 63.06,10.38 16.21,0 29.3,-1.6 39.26,-4.81 9.96,-3.21 17.31,-7.68 22.04,-13.42 4.73,-5.74 7.09,-12.33 7.09,-19.76 0,-9.46 -3.72,-16.97 -11.14,-22.54 -7.43,-5.57 -17.22,-10.13 -29.38,-13.68 -12.16,-3.55 -25.58,-6.92 -40.27,-10.13 -14.69,-3.21 -29.38,-7.18 -44.07,-11.9 -14.69,-4.73 -28.11,-10.81 -40.27,-18.24 -12.15,-7.43 -22.03,-17.22 -29.63,-29.38 -7.6,-12.15 -11.4,-27.69 -11.4,-46.6 0,-20.26 5.49,-38.75 16.46,-55.46 10.98,-16.71 27.52,-30.06 49.64,-40.02 22.12,-9.96 49.89,-14.94 83.32,-14.94 22.29,0 44.24,2.62 65.85,7.85 21.61,5.24 40.69,13.09 57.24,23.55l-25.33 62.3c-16.55,-9.46 -33.09,-16.46 -49.64,-21.02 -16.55,-4.56 -32.76,-6.84 -48.63,-6.84 -15.87,0 -28.87,1.86 -39,5.57 -10.13,3.71 -17.39,8.52 -21.78,14.43 -4.39,5.91 -6.59,12.75 -6.59,20.52 0,9.11 3.72,16.46 11.15,22.04 7.43,5.57 17.22,10.04 29.38,13.42 12.15,3.38 25.58,6.75 40.27,10.13 14.69,3.38 29.38,7.26 44.07,11.65 14.69,4.39 28.11,10.3 40.26,17.73 12.16,7.43 22.04,17.22 29.63,29.38 7.6,12.16 11.4,27.52 11.4,46.09 0,19.93 -5.57,38.16 -16.71,54.71 -11.15,16.54 -27.78,29.88 -49.9,40.01 -22.12,10.13 -50.06,15.2 -83.83,15.2zm230.47 96.24c-14.18,0 -28.2,-2.2 -42.04,-6.59 -13.85,-4.39 -25.16,-10.46 -33.94,-18.24l28.87 -56.22c6.08,5.41 13.09,9.63 21.02,12.67 7.94,3.04 15.79,4.56 23.55,4.56 11.15,0 20.01,-2.62 26.59,-7.85 6.58,-5.24 12.58,-13.93 17.98,-26.09l14.18 -33.43 6.08 -8.61 97.76 -235.03 75.98 0 -123.09 289.23c-8.78,21.95 -18.82,39.17 -30.14,51.67 -11.31,12.49 -23.81,21.27 -37.48,26.34 -13.67,5.07 -28.79,7.6 -45.33,7.6zm46.6 -91.68l-121.57 -283.15 81.55 0 94.22 227.94 -54.2 55.21zm387.49 -287.2c21.61,0 40.95,4.31 58,12.92 17.05,8.61 30.48,21.78 40.27,39.51 9.8,17.73 14.69,40.44 14.69,68.13l0 156.01 -79.02 0 0 -143.85c0,-21.95 -4.81,-38.16 -14.44,-48.62 -9.62,-10.47 -23.22,-15.7 -40.78,-15.7 -12.5,0 -23.72,2.61 -33.69,7.85 -9.96,5.23 -17.73,13.26 -23.3,24.06 -5.57,10.81 -8.36,24.65 -8.36,41.54l0 134.74 -79.02 0 0 -272.51 75.47 0 0 75.47 -14.18 -22.8c9.8,-18.23 23.81,-32.24 42.04,-42.04 18.24,-9.79 39,-14.69 62.3,-14.69zm351.53 276.57l0 -53.19 -5.07 -11.65 0 -95.23c0,-16.88 -5.15,-30.05 -15.44,-39.51 -10.3,-9.46 -26.09,-14.19 -47.36,-14.19 -14.52,0 -28.79,2.28 -42.8,6.84 -14.02,4.56 -25.92,10.72 -35.71,18.48l-28.37 -55.21c14.86,-10.47 32.76,-18.57 53.69,-24.31 20.94,-5.74 42.21,-8.61 63.82,-8.61 41.54,0 73.78,9.8 96.74,29.38 22.96,19.59 34.44,50.15 34.44,91.68l0 155.5 -73.95 0zm-83.07 4.06c-21.28,0 -39.51,-3.63 -54.7,-10.89 -15.19,-7.26 -26.84,-17.13 -34.95,-29.63 -8.11,-12.5 -12.16,-26.51 -12.16,-42.04 0,-16.21 3.97,-30.39 11.91,-42.55 7.93,-12.16 20.51,-21.7 37.73,-28.62 17.22,-6.92 39.68,-10.38 67.37,-10.38l72.43 0 0 46.09 -63.82 0c-18.57,0 -31.32,3.04 -38.24,9.12 -6.93,6.08 -10.39,13.67 -10.39,22.79 0,10.13 3.97,18.15 11.9,24.06 7.94,5.91 18.83,8.87 32.67,8.87 13.17,0 24.99,-3.13 35.46,-9.37 10.46,-6.25 18.07,-15.45 22.79,-27.6l12.16 36.47c-5.74,17.56 -16.21,30.9 -31.41,40.01 -15.2,9.12 -34.78,13.68 -58.76,13.68zm297.33 -4.06l-114.48 -272.51 81.55 0 95.23 234.52 -40.52 0 98.77 -234.52 75.98 0 -114.98 272.51 -81.55 0zm351.02 4.06c-29.04,0 -54.79,-6.08 -77.24,-18.24 -22.46,-12.16 -40.19,-28.79 -53.19,-49.89 -13,-21.11 -19.5,-45.17 -19.5,-72.18 0,-27.36 6.5,-51.58 19.5,-72.69 13,-21.1 30.73,-37.65 53.19,-49.64 22.46,-11.99 48.2,-17.98 77.24,-17.98 28.7,0 54.37,6 76.99,17.98 22.63,11.99 40.35,28.45 53.19,49.39 12.83,20.94 19.25,45.25 19.25,72.94 0,27.01 -6.41,51.07 -19.25,72.18 -12.83,21.1 -30.56,37.73 -53.19,49.89 -22.63,12.16 -48.29,18.24 -76.99,18.24zm0 -64.84c13.17,0 24.99,-3.04 35.46,-9.12 10.46,-6.08 18.74,-14.77 24.82,-26.09 6.08,-11.31 9.12,-24.73 9.12,-40.26 0,-15.87 -3.04,-29.38 -9.12,-40.52 -6.08,-11.15 -14.35,-19.76 -24.82,-25.83 -10.47,-6.08 -22.29,-9.12 -35.46,-9.12 -13.17,0 -24.99,3.04 -35.46,9.12 -10.46,6.08 -18.82,14.69 -25.07,25.83 -6.25,11.14 -9.37,24.65 -9.37,40.52 0,15.53 3.13,28.95 9.37,40.26 6.25,11.31 14.61,20.01 25.07,26.09 10.47,6.08 22.29,9.12 35.46,9.12zm202.11 60.78l0 -272.51 75.47 0 0 77 -10.63 -22.29c8.1,-19.25 21.1,-33.85 39,-43.82 17.89,-9.96 39.68,-14.94 65.34,-14.94l0 72.94c-3.38,-0.33 -6.42,-0.59 -9.12,-0.76 -2.7,-0.17 -5.57,-0.26 -8.61,-0.26 -21.61,0 -39.09,6.17 -52.43,18.49 -13.34,12.33 -20,31.49 -20,57.49l0 128.66 -79.02 0z"/>
  </g>
 </g>
</svg>
